<svg width="288" height="153" viewBox="0 0 288 153" fill="none" xmlns="http://www.w3.org/2000/svg">
<g clip-path="url(#clip0_270_199)">
<mask id="mask0_270_199" style="mask-type:luminance" maskUnits="userSpaceOnUse" x="6" y="-43" width="269" height="196">
<path d="M274.225 -43H6.22461V153H274.225V-43Z" fill="white"/>
</mask>
<g mask="url(#mask0_270_199)">
<mask id="mask1_270_199" style="mask-type:luminance" maskUnits="userSpaceOnUse" x="6" y="3" width="61" height="100">
<path d="M6.4375 3.66669H66.224V102.333H6.4375V3.66669Z" fill="white"/>
</mask>
<g mask="url(#mask1_270_199)">
<path d="M62.1982 75.9764C63.1566 75.9764 63.9118 76.4243 64.4691 77.3098C65.0212 78.2004 65.3024 79.4139 65.3024 80.9556C65.3024 83.9139 64.5993 86.2056 63.1982 87.8306C60.016 91.7629 56.5368 94.9868 52.7607 97.4973C48.9951 100.013 44.6774 101.268 39.8024 101.268C24.7191 101.268 17.1774 90.6587 17.1774 69.4348C17.1774 66.1743 17.2816 62.8827 17.4899 59.5598H13.1774C10.9535 59.5598 9.45345 59.1587 8.67741 58.3514C7.89616 57.5337 7.51074 56.2368 7.51074 54.4556C7.51074 50.3202 9.17741 48.2473 12.5107 48.2473H18.8232C20.0837 40.1118 22.0107 32.6795 24.5941 25.9556C27.1878 19.2212 30.3128 13.8618 33.9691 9.87225C37.6357 5.87225 41.5732 3.87225 45.7816 3.87225C48.891 3.87225 51.3285 5.24205 53.0941 7.97642C54.8701 10.716 55.7607 14.1535 55.7607 18.2889C55.7607 29.7473 50.9535 39.7368 41.3441 48.2473H53.7607C54.9535 48.2473 55.8076 48.5077 56.3232 49.0181C56.8337 49.5337 57.0941 50.492 57.0941 51.8931C57.0941 57.0077 52.917 59.5598 44.5732 59.5598H31.0316C30.8753 63.2577 30.8024 66.1379 30.8024 68.2056C30.8024 75.9035 31.7035 81.3045 33.5107 84.4139C35.3285 87.5129 38.1982 89.0598 42.1149 89.0598C45.292 89.0598 48.1045 88.1014 50.5524 86.1848C52.9951 84.2577 55.8753 81.367 59.1982 77.5181C60.0837 76.492 61.0837 75.9764 62.1982 75.9764ZM42.7816 14.5181C41.667 14.5181 40.4326 15.9087 39.0732 18.6848C37.7087 21.466 36.417 25.3098 35.1982 30.2264C33.9743 35.1431 32.9535 40.5962 32.1357 46.5806C36.4951 42.8045 39.766 38.5702 41.9482 33.8723C44.1253 29.1795 45.2191 24.9087 45.2191 21.0598C45.2191 16.7004 44.4066 14.5181 42.7816 14.5181Z" fill="white"/>
</g>
<path d="M64.2048 101.268C61.3818 101.268 59.3975 99.7889 58.2464 96.8306C57.1058 93.8722 56.5381 89.1379 56.5381 82.6222C56.5381 73.0129 57.9027 63.8826 60.6423 55.2264C61.3089 53.091 62.3975 51.5181 63.9131 50.5181C65.4235 49.5181 67.5485 49.0181 70.2881 49.0181C71.7725 49.0181 72.8089 49.2056 73.3923 49.5806C73.986 49.9452 74.2881 50.6431 74.2881 51.6847C74.2881 52.867 73.7308 55.5285 72.6214 59.6639C71.8818 62.6222 71.2933 65.216 70.8506 67.4347C70.4027 69.6587 70.0381 72.3931 69.7464 75.6431C72.1735 69.2837 74.9027 64.1118 77.9339 60.1222C80.9756 56.1222 83.9548 53.2785 86.8714 51.5806C89.7985 49.8722 92.4808 49.0181 94.9131 49.0181C99.7152 49.0181 102.121 51.4243 102.121 56.2264C102.121 57.1847 101.788 59.5129 101.121 63.2056C100.538 66.1639 100.246 68.0181 100.246 68.7681C100.246 71.3514 101.168 72.6431 103.017 72.6431C105.085 72.6431 107.746 71.0181 110.996 67.7681C111.955 66.8097 112.955 66.3306 113.996 66.3306C114.955 66.3306 115.71 66.7576 116.267 67.6014C116.819 68.4504 117.101 69.5754 117.101 70.9764C117.101 73.716 116.361 75.8618 114.892 77.4139C112.819 79.5545 110.397 81.3879 107.621 82.9139C104.84 84.4295 101.903 85.1847 98.8089 85.1847C94.8766 85.1847 91.8975 84.1847 89.8714 82.1847C87.8402 80.1847 86.8298 77.4868 86.8298 74.0806C86.8298 72.9712 86.9391 71.867 87.1631 70.7681C87.2985 69.2837 87.3714 68.2837 87.3714 67.7681C87.3714 66.591 86.9652 65.9972 86.1631 65.9972C85.0485 65.9972 83.585 67.2368 81.7673 69.7056C79.96 72.1795 78.1683 75.4504 76.3923 79.5181C74.611 83.591 73.1735 87.8827 72.0798 92.3931C71.2568 95.867 70.3141 98.216 69.2464 99.4347C68.1735 100.659 66.4964 101.268 64.2048 101.268Z" fill="white"/>
<path d="M163.567 76.1847C164.536 76.1847 165.301 76.6535 165.859 77.5806C166.411 78.4972 166.692 79.6639 166.692 81.0806C166.692 82.7785 166.426 84.1118 165.9 85.0806C165.385 86.0389 164.572 86.8879 163.463 87.6222L142.171 101.935C139.364 117.237 135.682 129.268 131.13 138.018C126.588 146.778 120.801 151.164 113.775 151.164C109.994 151.164 106.926 149.997 104.567 147.664C102.202 145.341 101.025 142.294 101.025 138.518C101.025 135.044 101.817 131.497 103.4 127.872C104.994 124.258 107.952 120.101 112.275 115.393C116.609 110.695 122.723 105.32 130.63 99.2681L130.963 96.7056C131.473 93.9712 132.067 90.0545 132.734 84.9556C131.26 90.2785 129.192 94.3254 126.525 97.1014C123.869 99.8827 121.067 101.268 118.109 101.268C114.775 101.268 112.051 99.7368 109.942 96.6639C107.843 93.5962 106.796 89.7681 106.796 85.1847C106.796 79.6327 107.161 74.5493 107.9 69.9347C108.635 65.3097 109.848 60.4087 111.546 55.2264C112.296 53.0076 113.327 51.4139 114.65 50.4556C115.984 49.4972 118.093 49.0181 120.984 49.0181C122.609 49.0181 123.734 49.2837 124.359 49.8097C124.994 50.3254 125.317 51.0962 125.317 52.1222C125.317 52.7212 124.906 54.7212 124.088 58.1222C123.348 60.8618 122.76 63.3306 122.317 65.5389C121.718 68.5806 121.197 71.492 120.755 74.2681C120.307 77.0337 120.088 79.3045 120.088 81.0806C120.088 83.8879 120.864 85.2889 122.421 85.2889C123.531 85.2889 124.921 84.1847 126.588 81.9764C128.255 79.7577 130.025 76.3879 131.9 71.8722C133.786 67.3618 135.619 61.8097 137.4 55.2264C137.994 53.0076 138.9 51.4139 140.109 50.4556C141.327 49.4972 143.161 49.0181 145.609 49.0181C147.301 49.0181 148.484 49.242 149.15 49.6847C149.817 50.1326 150.15 50.867 150.15 51.8931C150.15 53.7576 149.192 60.117 147.275 70.9764L144.38 88.8306C150.072 84.5545 155.619 80.6379 161.025 77.0806C161.984 76.4868 162.827 76.1847 163.567 76.1847ZM115.005 140.414C116.848 140.414 118.921 138.268 121.213 133.976C123.505 129.685 125.796 122.549 128.088 112.581C122.39 117.383 118.265 121.758 115.713 125.706C113.156 129.664 111.88 133.122 111.88 136.081C111.88 137.341 112.119 138.377 112.609 139.185C113.093 140.002 113.89 140.414 115.005 140.414Z" fill="white"/>
<path d="M216.697 76.1848C217.665 76.1848 218.431 76.6535 218.988 77.5806C219.54 78.4973 219.822 79.6639 219.822 81.0806C219.822 82.7785 219.556 84.1119 219.03 85.0806C218.514 86.0389 217.702 86.8879 216.592 87.6223C210.228 91.9139 205.572 95.0962 202.613 97.1639L195.53 101.935C192.707 117.237 189.02 129.268 184.467 138.018C179.926 146.779 174.145 151.164 167.134 151.164C163.353 151.164 160.28 149.997 157.905 147.664C155.54 145.341 154.363 142.294 154.363 138.518C154.363 133.268 156.431 127.627 160.572 121.601C164.723 115.586 172.493 108.174 183.884 99.3723L184.53 95.0389C183.28 97.0389 181.634 98.5806 179.592 99.6639C177.561 100.732 175.551 101.268 173.551 101.268C168.967 101.268 165.306 99.6014 162.572 96.2681C159.832 92.9348 158.467 88.5754 158.467 83.1848C158.467 77.2681 159.832 71.6744 162.572 66.3931C165.306 61.1014 168.947 56.8462 173.488 53.6223C178.04 50.4035 182.874 48.7889 187.988 48.7889C189.613 48.7889 190.702 49.1119 191.259 49.7473C191.811 50.3723 192.27 51.4973 192.634 53.1223C194.035 52.8306 195.66 52.6848 197.509 52.6848C199.353 52.6848 200.665 52.966 201.447 53.5181C202.223 54.0754 202.613 55.1639 202.613 56.7889C202.613 57.6796 202.577 58.3827 202.509 58.8931C202.217 61.1848 201.29 66.9921 199.738 76.3098C199.447 78.0754 199.134 80.0129 198.801 82.1223C198.467 84.2369 198.113 86.4712 197.738 88.8306C203.431 84.4035 208.905 80.4869 214.155 77.0806C215.113 76.4869 215.957 76.1848 216.697 76.1848ZM177.551 90.0598C179.259 90.0598 180.884 89.0285 182.426 86.9556C183.978 84.8879 185.092 81.9296 185.759 78.0806L189.301 59.1014C186.27 59.1848 183.457 60.3619 180.863 62.6223C178.28 64.8723 176.207 67.8462 174.655 71.5389C173.113 75.2369 172.342 79.1535 172.342 83.2889C172.342 85.5806 172.801 87.2837 173.717 88.3931C174.645 89.5077 175.926 90.0598 177.551 90.0598ZM168.342 140.414C170.186 140.414 172.28 138.19 174.613 133.747C176.947 129.315 179.181 122.258 181.322 112.581C175.624 117.456 171.52 121.851 169.009 125.768C166.493 129.685 165.238 133.122 165.238 136.081C165.238 137.341 165.473 138.377 165.947 139.185C166.431 140.002 167.228 140.414 168.342 140.414Z" fill="white"/>
<mask id="mask2_270_199" style="mask-type:luminance" maskUnits="userSpaceOnUse" x="206" y="47" width="68" height="105">
<path d="M206.225 47.6667H273.959V151.667H206.225V47.6667Z" fill="white"/>
</mask>
<g mask="url(#mask2_270_199)">
<path d="M269.825 76.1847C270.793 76.1847 271.559 76.6535 272.116 77.5805C272.668 78.4972 272.95 79.6639 272.95 81.0805C272.95 82.7785 272.684 84.1118 272.158 85.0805C271.642 86.0389 270.83 86.8878 269.72 87.6222C263.356 91.9139 258.7 95.0962 255.741 97.1639L248.658 101.935C245.835 117.237 242.147 129.268 237.595 138.018C233.054 146.778 227.272 151.164 220.262 151.164C216.481 151.164 213.408 149.997 211.033 147.664C208.668 145.341 207.491 142.294 207.491 138.518C207.491 133.268 209.559 127.627 213.7 121.601C217.851 115.586 225.621 108.174 237.012 99.3722L237.658 95.0389C236.408 97.0389 234.762 98.5805 232.72 99.6639C230.689 100.732 228.679 101.268 226.679 101.268C222.095 101.268 218.434 99.6014 215.7 96.268C212.96 92.9347 211.595 88.5753 211.595 83.1847C211.595 77.268 212.96 71.6743 215.7 66.393C218.434 61.1014 222.075 56.8462 226.616 53.6222C231.168 50.4035 236.002 48.7889 241.116 48.7889C242.741 48.7889 243.83 49.1118 244.387 49.7472C244.939 50.3722 245.397 51.4972 245.762 53.1222C247.163 52.8305 248.788 52.6847 250.637 52.6847C252.481 52.6847 253.793 52.966 254.575 53.518C255.351 54.0753 255.741 55.1639 255.741 56.7889C255.741 57.6795 255.705 58.3826 255.637 58.893C255.345 61.1847 254.418 66.992 252.866 76.3097C252.575 78.0753 252.262 80.0128 251.929 82.1222C251.595 84.2368 251.241 86.4712 250.866 88.8305C256.559 84.4035 262.033 80.4868 267.283 77.0805C268.241 76.4868 269.085 76.1847 269.825 76.1847ZM230.679 90.0597C232.387 90.0597 234.012 89.0285 235.554 86.9555C237.106 84.8878 238.22 81.9295 238.887 78.0805L242.429 59.1014C239.397 59.1847 236.585 60.3618 233.991 62.6222C231.408 64.8722 229.335 67.8462 227.783 71.5389C226.241 75.2368 225.47 79.1535 225.47 83.2889C225.47 85.5805 225.929 87.2837 226.845 88.393C227.772 89.5076 229.054 90.0597 230.679 90.0597ZM221.47 140.414C223.314 140.414 225.408 138.19 227.741 133.747C230.075 129.315 232.309 122.258 234.45 112.581C228.752 117.456 224.647 121.851 222.137 125.768C219.621 129.685 218.366 133.122 218.366 136.081C218.366 137.341 218.601 138.377 219.075 139.185C219.559 140.002 220.356 140.414 221.47 140.414Z" fill="white"/>
</g>
</g>
<mask id="mask3_270_199" style="mask-type:luminance" maskUnits="userSpaceOnUse" x="0" y="108" width="230" height="13">
<path d="M0 108.703H230V120.703H0V108.703Z" fill="white"/>
</mask>
<g mask="url(#mask3_270_199)">
<path d="M226.688 115.25C213.661 114.979 200.625 114.771 187.594 114.641C188.568 114.411 189.411 114.026 189.979 113.396C190.333 113.005 190.146 112.411 189.974 112.005C189.833 111.672 189.505 110.917 188.885 110.807C177.401 108.781 165.328 108.938 153.521 109.047C141.203 109.161 128.885 109.479 116.594 109.995C92.0521 111.026 67.7396 113.021 43.4688 115.521C36.5938 116.234 29.7136 116.932 22.8333 117.609C19.5104 117.938 16.1875 118.25 12.8542 118.536C11.125 118.682 9.39585 118.844 7.66668 118.995C6.8073 119.073 5.94793 119.161 5.08855 119.24C4.80209 119.266 4.51043 119.297 4.22397 119.323C3.72397 119.37 3.22918 119.411 2.72918 119.443C2.31772 119.547 1.91147 119.656 1.51043 119.771C1.07293 119.87 0.354177 120.057 0.13022 120.344C0.0208435 120.484 0.0104279 120.583 0.135428 120.625C0.13022 120.625 0.125011 120.63 0.119803 120.63C0.651052 120.724 1.03126 120.833 1.58334 120.828C1.88543 120.828 2.19272 120.818 2.50001 120.807C3.26043 120.792 4.02605 120.771 4.79168 120.75C5.07814 120.745 5.3698 120.734 5.66147 120.724C6.84897 120.818 8.03126 120.932 9.20314 121C9.32293 121.005 9.07814 120.708 8.9271 120.693C8.6771 120.667 8.42189 120.641 8.17189 120.615C8.71876 120.589 9.27085 120.568 9.81772 120.542C12.9948 120.417 16.1667 120.167 19.3281 119.943C25.5781 119.5 31.8021 118.948 38.0313 118.385C50.4115 117.266 62.7656 116.068 75.1875 115.13C99.75 113.281 124.427 112.125 149.156 111.792C159.438 111.651 170.026 111.354 180.292 112.26C177.292 112.224 174.292 112.208 171.286 112.224C164.297 112.266 157.313 112.458 150.339 112.76C137.672 113.313 125.057 114.24 112.474 115.318C103.063 115.823 93.6875 116.604 84.4479 117.865C83.4323 118 84.3386 120.651 85.4583 120.542C93.3646 119.766 101.292 119.005 109.229 118.302C119.771 117.62 130.37 117.302 140.974 117.177C159.615 116.958 178.276 117.125 196.911 117.349C203.917 117.432 210.922 117.542 217.932 117.667C218.036 117.984 218.224 118.203 218.5 118.193C221.932 118.052 225.375 118.057 228.807 117.88C230.036 117.813 227.891 115.276 226.688 115.25Z" fill="white"/>
</g>
<mask id="mask4_270_199" style="mask-type:luminance" maskUnits="userSpaceOnUse" x="214" y="5" width="94" height="82">
<path d="M307.558 5H214.225V86.3333H307.558V5Z" fill="white"/>
</mask>
<g mask="url(#mask4_270_199)">
<path d="M231.556 28.41L235.285 37.6392L234.098 38.1184L232.41 33.9309L227.702 35.8475L229.39 40.035L228.181 40.5142L224.452 31.285L225.66 30.8059L227.306 34.8684L232.015 32.9517L230.369 28.8892L231.556 28.41Z" fill="white"/>
<path d="M236.363 28.4704L236.883 31.7413L240.446 31.1788L240.613 32.2621L237.05 32.8246L237.592 36.2204L241.592 35.5746L241.758 36.6163L236.467 37.4704L234.904 27.6163L240.196 26.7621L240.363 27.8246L236.363 28.4704Z" fill="white"/>
<path d="M253.611 27.4934L252.611 37.3476L251.319 37.2017L252.069 29.8684L248.049 36.8684L247.153 36.7851L244.59 29.0976L243.84 36.4517L242.569 36.3059L243.569 26.4517L244.944 26.5976L247.757 35.1184L252.236 27.3476L253.611 27.4934Z" fill="white"/>
<path d="M256.387 39.0908C255.773 38.8408 255.268 38.5074 254.867 38.0908C254.476 37.6845 254.221 37.247 254.096 36.7574C253.971 36.2731 254.002 35.7679 254.2 35.2366L255.512 35.7574C255.356 36.2158 255.387 36.6533 255.596 37.0699C255.804 37.4866 256.205 37.8095 256.804 38.0491C257.387 38.2679 257.893 38.2991 258.325 38.1324C258.768 37.9762 259.08 37.6793 259.262 37.2366C259.398 36.8929 259.414 36.5699 259.304 36.2783C259.19 35.9762 259.012 35.7054 258.762 35.4658C258.523 35.2314 258.184 34.9554 257.742 34.6324C257.184 34.2314 256.752 33.8772 256.45 33.5699C256.143 33.2679 255.929 32.8929 255.804 32.4449C255.679 32.0022 255.731 31.4866 255.971 30.9033C256.164 30.4033 256.46 30.0179 256.867 29.7366C257.283 29.4449 257.762 29.2887 258.304 29.2574C258.856 29.2314 259.434 29.3356 260.033 29.5699C260.908 29.9189 261.533 30.4189 261.908 31.0699C262.294 31.7106 262.387 32.3981 262.179 33.1324L260.846 32.6116C260.94 32.2522 260.877 31.872 260.658 31.4658C260.45 31.0647 260.075 30.7574 259.533 30.5491C259.018 30.3564 258.554 30.3304 258.137 30.4658C257.721 30.6064 257.414 30.9137 257.221 31.3824C257.096 31.7158 257.08 32.0231 257.179 32.2991C257.289 32.5804 257.46 32.8304 257.7 33.0491C257.934 33.2731 258.273 33.5491 258.721 33.8824C259.273 34.3147 259.7 34.6897 259.992 35.0074C260.294 35.3147 260.518 35.6897 260.658 36.1324C260.794 36.5647 260.752 37.0804 260.533 37.6741C260.351 38.1324 260.059 38.5074 259.658 38.7991C259.252 39.1012 258.768 39.2887 258.2 39.3616C257.627 39.4293 257.023 39.3408 256.387 39.0908Z" fill="white"/>
<path d="M266.316 33.9831L264.483 36.754L267.524 38.754L266.941 39.6498L263.899 37.6498L262.004 40.5248L265.399 42.754L264.816 43.6498L260.337 40.7123L265.816 32.379L270.295 35.3165L269.712 36.2123L266.316 33.9831Z" fill="white"/>
<path d="M269.312 47.9947L270.562 43.4322L269.457 42.3072L266.541 45.1822L265.624 44.2655L272.707 37.2655L274.957 39.5363C275.483 40.078 275.838 40.6301 276.02 41.1822C276.213 41.7238 276.239 42.2447 276.103 42.7447C275.978 43.2447 275.718 43.6874 275.332 44.078C274.832 44.5624 274.254 44.8384 273.603 44.9113C272.963 44.9947 272.296 44.8176 271.603 44.3905L270.395 49.0988L269.312 47.9947ZM270.187 41.578L271.52 42.9322C272.02 43.4478 272.52 43.703 273.02 43.703C273.52 43.7134 273.978 43.5207 274.395 43.1197C274.812 42.703 275.009 42.2603 274.999 41.7863C274.983 41.302 274.718 40.802 274.207 40.2863L272.874 38.9322L270.187 41.578Z" fill="white"/>
<path d="M283.672 51.7064L273.193 53.5606L272.422 52.2689L279.068 43.9564L279.776 45.1439L274.005 52.2064L282.964 50.5189L283.672 51.7064Z" fill="white"/>
<path d="M284.857 55.1807L275.544 58.7224L275.086 57.5141L284.398 53.9724L284.857 55.1807Z" fill="white"/>
<path d="M281.076 58.5736C282.018 58.4069 282.914 58.4799 283.763 58.7819C284.607 59.084 285.31 59.5736 285.867 60.2403C286.419 60.9174 286.784 61.709 286.951 62.6153C287.128 63.683 287.034 64.6569 286.659 65.5319C286.284 66.4174 285.649 67.1361 284.763 67.6778L284.513 66.1361C285.039 65.7611 285.414 65.2871 285.638 64.7194C285.872 64.1465 285.935 63.5111 285.826 62.8028C285.701 62.1205 285.43 61.5371 285.013 61.0528C284.607 60.5632 284.086 60.209 283.451 59.9903C282.81 59.7819 282.096 59.7455 281.305 59.8861C280.513 60.0215 279.852 60.2924 279.326 60.6986C278.81 61.1153 278.435 61.6205 278.201 62.2194C277.961 62.8132 277.909 63.4538 278.034 64.1361C278.143 64.8444 278.399 65.4278 278.805 65.8861C279.221 66.3549 279.747 66.6778 280.388 66.8444L280.638 68.3861C279.649 68.1778 278.831 67.7194 278.18 67.0111C277.524 66.3028 277.107 65.4121 276.93 64.3444C276.763 63.4382 276.826 62.5788 277.117 61.7611C277.419 60.9382 277.914 60.2455 278.596 59.6778C279.289 59.1049 280.117 58.7403 281.076 58.5736Z" fill="white"/>
<path d="M286.363 71.6449L283.05 71.4157L282.8 75.0199L281.717 74.9365L281.967 71.3324L278.55 71.1032L278.259 75.1449L277.196 75.0615L277.571 69.7282L287.53 70.4365L287.155 75.7699L286.071 75.6865L286.363 71.6449Z" fill="white"/>
</g>
</g>
<defs>
<clipPath id="clip0_270_199">
<rect width="288" height="153" fill="white"/>
</clipPath>
</defs>
</svg>
